<?xml version="1.0" encoding="UTF-8"?>
<!DOCTYPE svg PUBLIC "-//W3C//DTD SVG 1.1//EN" "http://www.w3.org/Graphics/SVG/1.1/DTD/svg11.dtd">
<!-- Creator: CorelDRAW -->
<svg xmlns="http://www.w3.org/2000/svg" xml:space="preserve" width="210mm" height="297mm" version="1.1" style="shape-rendering:geometricPrecision; text-rendering:geometricPrecision; image-rendering:optimizeQuality; fill-rule:evenodd; clip-rule:evenodd"
viewBox="0 0 21000 29700"
 xmlns:xlink="http://www.w3.org/1999/xlink">
 <defs>
  <style type="text/css">
   <![CDATA[
    .str3 {stroke:black;stroke-width:10;stroke-opacity:0.501961}
    .str5 {stroke:black;stroke-width:50}
    .str1 {stroke:red;stroke-width:50}
    .str7 {stroke:#434242;stroke-width:10}
    .str2 {stroke:black;stroke-width:10}
    .str4 {stroke:black;stroke-width:10}
    .str0 {stroke:red;stroke-width:10}
    .str8 {stroke:#2B2A29;stroke-width:7.62}
    .str6 {stroke:black;stroke-width:7.62}
    .fil0 {fill:none}
    .fil7 {fill:#D9DADA}
    .fil1 {fill:#94ADBD}
    .fil5 {fill:#FEFEFE;fill-rule:nonzero}
    .fil4 {fill:#D9DADA;fill-rule:nonzero}
    .fil6 {fill:#434242;fill-rule:nonzero}
    .fil3 {fill:black;fill-rule:nonzero}
    .fil2 {fill:#FEFEFE;fill-rule:nonzero;fill-opacity:0.501961}
   ]]>
  </style>
 </defs>
 <g id="Plan_x0020_1">
  <metadata id="CorelCorpID_0Corel-Layer"/>
  <path class="fil0 str0" d="M10148 1000c-6,17 -12,35 -19,52 -45,101 -193,133 -275,209 -26,24 -40,49 -60,75 -68,89 -3,160 -142,211 -99,36 -204,55 -307,64 -91,8 -133,62 -226,47 -83,-13 -125,43 -200,26 -52,-12 -66,58 -82,93 -17,36 -117,104 -100,143 18,42 29,77 74,99 110,54 74,247 65,349 -3,36 23,80 27,116 4,31 -13,45 -23,70 -31,74 -34,172 -43,252 -10,83 -24,166 -36,249 -14,96 -95,165 -101,261 -6,98 -8,197 -12,295 -1,22 5,45 -1,67 -10,33 -29,64 -45,94 -25,46 -61,86 -79,135 -9,26 -8,57 0,84 36,114 81,226 133,333 20,41 51,79 85,110 43,39 94,68 143,99 58,37 114,79 178,104 61,24 127,36 192,41 169,13 340,-1 509,13 35,3 73,14 99,38 29,27 45,67 54,106 20,93 25,188 30,283 1,30 -3,62 -12,91 -10,31 -20,66 -45,86 -45,36 -103,54 -157,75 -33,13 -71,10 -101,29 -27,17 -44,46 -62,72 -64,91 -133,179 -185,278 -32,62 -56,130 -63,199 -6,58 15,115 26,172 13,69 43,134 46,204 4,95 -10,189 -25,283 -6,40 -18,80 -37,116 -30,57 -68,110 -106,161 -130,175 -265,347 -399,519 -86,110 -177,216 -261,328 -28,38 -50,80 -75,121 -21,34 -56,62 -64,101 -23,101 -16,205 -27,308 -2,19 4,45 -12,55 -104,64 -222,101 -331,156 -13,6 -30,13 -33,27 -16,71 -15,145 -21,217 -11,118 -15,236 -31,353 -9,67 -16,137 -46,197 -24,48 -66,87 -112,116 -61,38 -136,47 -200,79 -28,14 -45,44 -74,56 -51,21 -106,29 -160,41 -44,9 -90,7 -132,21 -79,28 -159,57 -226,106 -34,24 -35,78 -66,106 -40,37 -100,48 -139,86 -110,105 -215,216 -306,338 -20,26 -18,64 -19,97 -2,109 24,219 10,327 -4,31 -38,50 -62,69 -40,32 -90,49 -129,82 -33,28 -57,66 -85,100 -27,34 -42,81 -79,105 -40,26 -92,39 -139,36 -56,-3 -105,-60 -161,-54 -42,4 -64,55 -97,81 -43,34 -101,54 -130,100 -19,32 -3,74 1,111 5,39 8,80 25,116 106,224 217,447 341,661 30,52 72,100 120,136 45,33 100,51 154,66 54,14 111,27 166,19 57,-9 108,-42 160,-68 47,-24 84,-74 136,-81 146,-20 295,0 442,1 159,1 319,-12 477,4 65,6 126,34 186,61 59,26 108,73 168,97 49,19 103,25 155,29 94,6 188,-6 282,0 46,3 89,24 135,26 171,10 342,-5 512,11 32,3 61,23 85,45 15,14 22,37 24,57 9,95 -1,191 10,285 3,24 12,49 29,67 17,18 42,26 66,33 36,11 76,7 110,23 19,9 33,28 41,48 17,45 30,93 31,141 5,169 -19,338 -12,507 1,24 18,46 35,62 34,33 84,47 114,82 52,61 84,138 130,204 36,51 69,105 116,147 35,31 87,38 123,68 36,30 71,65 92,107 29,60 39,128 54,193 18,78 18,160 44,235 25,74 58,149 108,209 42,49 120,58 161,109 49,62 76,140 99,216 24,79 30,163 43,245 20,131 34,264 55,395 46,288 100,576 147,864 8,49 3,101 15,149 16,64 48,122 68,185 20,63 24,132 52,192 63,132 151,252 220,381 45,85 90,170 124,260 52,137 89,279 136,418 16,47 45,91 54,140 6,31 -4,64 -12,94 -15,56 -48,106 -56,164 -11,77 -13,157 0,234 11,68 51,128 70,195 15,50 22,102 31,154 5,30 9,61 10,92 3,279 1,558 1,837 0,150 -13,301 0,450 4,45 42,82 50,127 16,83 9,169 23,252 10,66 31,129 48,193 40,148 79,296 123,443 13,43 16,93 46,125 70,75 165,121 244,186 39,32 73,71 111,105 29,26 62,48 88,78 59,67 95,155 166,210 45,35 113,26 166,49 57,25 105,68 162,92 52,22 108,48 164,43 151,-13 295,-72 444,-94 48,-7 98,-2 145,8 114,26 220,82 335,101 161,27 326,47 490,37 73,-5 131,-70 203,-81 110,-17 224,-10 335,-1 42,3 92,7 123,36 58,55 84,137 130,202 40,56 73,119 128,160 34,26 82,33 125,31 58,-3 117,-17 168,-44 83,-43 145,-119 228,-161 37,-19 82,-21 123,-18 98,7 194,29 291,48 209,40 418,77 624,129 67,17 134,40 193,75 50,30 95,71 130,118 82,111 142,238 218,353 42,64 80,133 136,186 135,129 285,242 434,354 23,17 51,33 80,32 87,-4 170,-36 256,-47 72,-9 144,-13 217,-12 58,1 121,-10 173,16 46,23 70,76 99,118 22,33 35,71 52,106"/>
  <path class="fil0 str0" d="M1000 25776c233,39 468,64 698,117 53,12 98,46 143,76 373,252 726,535 1111,769 168,102 360,159 541,234 78,32 163,49 237,88 48,26 85,68 125,105 234,214 463,432 696,647 151,139 295,287 455,415 51,41 111,70 173,90 192,60 391,98 586,147 52,13 104,23 155,37 68,19 141,26 201,63 52,32 82,91 123,136"/>
  <path class="fil0 str0" d="M1000 22849c78,-29 159,-51 235,-86 47,-22 105,-39 131,-84 44,-74 46,-166 68,-249 27,-101 76,-199 79,-303 3,-113 -37,-224 -60,-335 -24,-117 -48,-234 -81,-349 -19,-66 -39,-134 -75,-193 -42,-70 -101,-128 -155,-189 -45,-50 -95,-96 -142,-144"/>
  <path class="fil0 str0" d="M1000 23309c64,20 129,40 193,61 36,12 71,33 108,39 50,8 102,-2 153,4 38,4 75,31 113,24 54,-11 97,-51 147,-75 50,-25 105,-40 150,-72 42,-30 71,-75 108,-110 28,-26 62,-46 88,-74 44,-46 73,-105 120,-148 47,-43 120,-58 160,-109 24,-30 1,-78 17,-112 16,-35 53,-57 75,-90 15,-23 21,-52 36,-75 29,-46 68,-86 94,-134 18,-33 36,-69 39,-106 3,-42 -12,-83 -21,-124 -9,-42 -37,-81 -35,-124 7,-101 35,-200 62,-297 21,-78 63,-149 82,-227 19,-74 19,-152 31,-228 7,-42 10,-85 25,-124 52,-131 122,-253 175,-383 10,-25 12,-53 13,-80 7,-147 8,-294 12,-440 3,-125 13,-251 8,-376 -2,-62 -28,-121 -27,-183 1,-119 15,-239 32,-357 4,-30 28,-55 32,-85 3,-20 -12,-40 -11,-60 16,-231 42,-461 63,-691 19,-207 21,-417 60,-622 11,-56 44,-109 87,-147 38,-33 92,-43 141,-53 139,-28 279,-54 421,-60 71,-3 139,40 210,33 38,-3 71,-33 98,-61 44,-47 55,-123 108,-159 69,-45 160,-41 237,-69 46,-17 85,-52 132,-64 60,-16 127,1 186,-19 51,-18 85,-67 132,-92 33,-17 71,-22 106,-33"/>
  <path class="fil0 str1" d="M19202 1000c24,74 40,151 72,222 61,140 144,270 205,411 22,49 38,102 43,155 14,149 9,299 12,449 6,279 11,559 14,838 1,56 14,114 -2,167 -26,86 -89,157 -122,241 -20,52 -30,109 -36,165 -11,109 -9,218 -12,327 -10,376 -24,753 -26,1129 0,93 10,186 19,279 16,167 31,334 57,499 22,136 44,273 88,403 55,161 135,313 210,465 50,102 108,199 163,298"/>
  <path class="fil1 str2" d="M16896 11313c65,-27 130,-45 200,-53 57,-7 102,8 155,6 133,-5 109,-69 159,-167 21,-85 45,-175 32,-263 -10,-70 -78,-118 -135,-152 -32,-19 -55,-65 -82,-80 -1,-3 -6,-7 -8,-10 -7,-106 -73,-172 -163,-208 -86,-34 -82,-201 -139,-215l-3 -7c-22,-14 -280,-174 -120,-174 7,-30 -100,-51 -119,-60 -59,-30 -120,-32 -166,-89 -25,-31 -73,-40 -105,-61 -42,-27 0,-68 -91,-52l-110 0c-34,0 -44,-29 -74,-40 -56,-19 -153,-25 -183,-83 -61,-121 -224,-153 -346,-196 -90,-30 -145,-39 -238,-50 -110,-12 -120,-85 -184,-158 -24,-28 -132,-48 -169,-49 -93,-4 -83,88 -114,147l-132 458c-66,158 -148,268 -299,352 -140,77 -268,7 -411,-6 -68,-18 -136,-33 -184,-87 -39,-44 -15,-156 -64,-159l-122 -8c-51,-3 -84,85 -158,85 -95,0 -164,22 -238,76 -48,36 -152,105 -209,121 -70,19 -150,-3 -222,3 -142,12 -147,262 -195,352 -10,31 -5,67 -17,97l-29 68c-25,59 -7,121 -7,183 0,28 -12,82 -4,107 -1,4 0,9 0,13 15,66 35,172 27,239 -7,64 6,141 -5,202 0,48 15,94 15,143 0,40 -8,77 -18,114l-67 236c-38,121 -70,221 -70,350 0,26 11,72 5,95 1,4 1,7 3,12 -15,90 -50,200 13,275 44,52 76,102 69,177 0,60 61,122 86,176 28,61 32,115 44,178 7,36 -6,74 -1,105 -2,31 -18,71 -32,100 -5,11 -40,44 -32,54 8,12 30,-7 39,-7 0,13 -64,124 -75,131 -13,9 -10,-19 -9,-26 6,-38 -3,-33 -19,-4 -6,12 -12,22 -20,32 -17,23 -6,73 23,82 75,31 93,222 111,291 7,52 51,76 69,121 27,69 14,145 37,212 13,37 50,48 77,72 35,29 56,72 88,106 21,38 55,73 57,119 2,31 -15,54 -22,83 -13,52 35,70 43,122 8,53 37,114 54,165 9,51 56,56 77,95 39,70 65,165 92,241 28,81 98,109 85,202 -22,31 -29,111 -48,152 -27,57 -74,108 -13,157 31,25 41,54 45,93 6,56 9,75 35,126 11,115 47,227 163,274 65,27 112,43 164,93l148 141c129,72 125,233 259,288 198,81 245,-109 328,-229 23,-44 51,-146 88,-172 18,-13 26,-2 44,5 54,20 192,-62 253,-76 82,-19 115,22 159,84 21,60 106,131 142,186l128 194c32,87 113,185 173,256 68,80 121,112 134,226 18,32 22,69 45,101 20,28 41,17 64,36 38,30 55,77 105,99 84,37 182,71 273,68 109,-3 147,41 247,72 83,29 163,87 189,174 25,83 102,145 135,221 45,57 33,116 60,175 39,88 178,68 239,144 34,43 57,95 111,116 57,23 77,46 119,88 78,78 101,168 189,240 68,55 126,185 126,272 -2,32 25,89 27,128 9,155 55,260 133,393 14,62 4,104 75,121 94,21 157,127 222,195 40,42 74,85 132,100 60,15 86,54 136,77 41,-7 178,25 218,42 79,34 65,51 151,14 88,-38 164,-57 94,-171 -41,-67 -14,-174 -80,-217 -36,-83 -143,-138 -188,-215 -50,-86 -35,-193 -86,-286l-41 -103c-39,-61 -30,-119 -80,-176 -51,-57 -74,-125 -115,-187 -18,-27 -81,-113 -83,-140 -17,-51 -18,-113 -45,-161 -28,-49 -64,-72 -102,-110 -68,-68 -139,-158 -185,-243 -38,-38 -89,-95 -133,-124 -47,-30 -81,-106 -123,-128 -36,-19 -56,-9 -78,-50l-82 -155c-10,-20 -48,-30 -53,-49 -60,-108 -146,-202 -236,-288 -32,-31 -45,-68 -74,-99 -40,-42 -62,-81 -123,-93 -36,-7 -91,9 -122,-6 -34,-16 -58,-50 -85,-77 -76,-76 -63,-129 -97,-218 -15,-39 -73,-112 -77,-145 -3,-2 -4,-7 -5,-10 -95,-153 -177,-119 -327,-171 -96,-33 -278,-228 -302,-323 0,-94 -63,-188 -113,-263 -51,-77 -80,-163 -113,-249 -31,-86 -158,-149 -225,-206 -89,-76 -158,-182 -173,-301 -17,-46 -38,-88 -63,-129 -24,-40 -23,-89 -34,-133 -8,-31 -25,-61 -30,-94l-23 -128c-57,-159 -349,-111 -308,-328 8,-44 7,-121 20,-159 -21,-87 -26,-109 -105,-155 -71,-41 -21,-142 -16,-202 4,-45 -27,-98 -22,-131 -7,-121 -12,-263 46,-371 36,-21 76,-88 105,-122 48,-56 108,-131 175,-165 26,-13 142,-65 142,-95 -32,-8 -183,69 -231,78 -76,14 -208,-21 -175,-128 7,-25 -4,-59 -10,-84 -10,-48 1,-96 -13,-142 -15,-50 -39,-100 -10,-150 32,-34 66,-76 116,-84 98,-15 131,160 153,223 33,99 153,43 182,139 -7,40 -5,46 22,76 26,30 4,68 -10,99 -24,55 16,60 39,106 40,35 66,12 101,-19 56,-49 144,-73 182,-137 40,-67 43,-148 108,-197 17,-24 69,-55 94,-78 54,-49 82,-100 122,-159l110 -163c0,-37 29,-78 29,-122 0,-58 -24,-86 -48,-134 -26,-51 -46,-102 -66,-19 -35,9 -70,-58 -117,-63 -41,29 -69,-89 -69,-113 0,-34 9,-63 4,-97 -6,-45 -25,-79 -20,-126 14,-39 -14,-79 -21,-115 -7,-32 13,-68 -8,-96 -34,-45 -61,-45 -69,-112 -9,-73 32,-113 74,-164 2,-5 1,-5 4,-8 10,-82 173,-157 238,-183 128,-53 261,-78 400,-78 25,2 70,8 92,21 43,27 36,79 93,101 51,21 49,45 49,95 19,66 -1,126 50,186 70,81 174,105 276,109 37,1 102,4 133,-18 32,-22 61,-65 95,-81l18 -2zm-7597 -9143c5,-9 29,-18 40,-17 23,1 42,31 19,47 -30,20 -62,17 -88,-10l29 -20zm49 209c11,-49 147,-126 122,-25 -6,23 -42,51 -61,63 -22,14 -65,28 -65,-16l4 -22zm-1406 -201c0,-38 110,-110 122,-61 7,27 -23,56 -38,76 -20,25 -53,42 -82,16l-2 -30zm10605 23976c55,-31 104,-113 117,-175 16,-74 -7,-148 7,-218 7,-37 23,-65 36,-98 49,-80 122,-197 122,-293 0,-33 30,-48 41,-79 15,-45 16,-105 35,-144 15,-178 22,-343 -12,-520 2,-72 19,-152 1,-222 -15,-59 -30,-109 -30,-170 0,-42 -31,-48 -35,-73 -13,-7 -17,-48 -19,-62 -8,-92 -54,-224 -17,-312 15,-36 -5,-64 -33,-85l-116 -89c-130,-106 -200,-267 -315,-383 -20,-20 -101,-90 -105,-114 -5,-3 -2,-5 -9,-9 -77,-175 -73,-346 -57,-531l-35 -249c-11,-77 -2,-166 -17,-242 0,-47 -4,-88 4,-135 7,-46 -18,-63 -27,-105 -18,-89 59,-173 26,-260 -31,-69 -33,-142 -72,-210 -28,-49 -48,-154 -17,-205 -9,-25 -112,26 -135,38 -59,31 -108,5 -166,11 -41,-14 -86,-63 -123,-63 -73,0 -84,-44 -147,-66 -101,-34 -288,18 -356,-77 -52,-73 -55,-114 -133,-167 -46,-19 -70,-44 -123,-50 -58,-7 -84,8 -129,-40 -82,-87 -185,-55 -295,-55 -72,0 -105,-6 -171,-27 -101,-51 -214,-112 -256,-217 -18,-46 -68,-38 -105,-52 -56,-21 -64,-85 -132,-95 -98,-14 -118,-110 -179,-122 -51,-32 -53,-138 -86,-188 -43,-67 -99,-91 -135,-170 -19,-42 -25,-90 -59,-125 -19,-38 -68,-65 -84,-101 -18,-41 -25,-73 -51,-114 -43,-68 -127,-167 -142,-246 -28,-56 -73,-101 -100,-157 -31,-66 -37,-102 -117,-102 -141,0 -177,-248 -255,-243 -55,-5 -114,-91 -145,-132 -42,-58 -42,-118 -69,-181 -18,-43 -59,-79 -86,-116 -42,-42 -91,-100 -116,-153 -28,-60 -28,-105 -42,-163 -35,-9 -168,71 -231,71 -93,0 -185,-29 -273,-32 -81,-41 -193,-81 -284,-81 -97,0 -193,35 -289,35 -49,0 -77,-11 -60,48 10,34 42,99 42,130 55,63 32,123 61,187 28,59 37,118 66,175 12,24 25,70 39,88 43,80 54,211 121,272 33,30 124,125 132,168 25,76 12,80 -8,150l-52 181c-9,29 -9,69 -23,94 -15,60 -50,130 -100,167 -60,44 7,63 36,93 68,69 107,142 29,227 -14,15 -27,43 -38,53 13,51 26,84 28,137 2,50 30,74 51,116 24,48 77,182 51,232 0,79 50,76 73,140 20,55 10,129 20,187 6,36 -15,77 -23,109 -23,60 -21,125 -61,176 -35,45 -61,84 -72,142 -5,26 -12,86 -24,107 0,102 -39,144 -79,229 -33,70 -10,151 -69,210 -17,17 -58,81 -76,87 -1,3 -5,4 -7,5 -72,48 -122,201 -212,201 -75,0 -242,-61 -271,11 -19,48 -89,62 -128,30 -66,-57 -81,-139 -67,-222 8,-48 53,-79 61,-123 28,-51 74,-119 85,-176 15,-76 -5,-132 -16,-204 -5,-35 17,-85 21,-124 16,-68 23,-92 9,-160 -12,-57 -9,-130 -2,-189 3,-25 -4,-112 4,-128 -3,-10 -1,-27 -1,-38 0,-119 -46,-239 -61,-356 -5,-38 10,-64 -40,-71 -52,-8 -70,-26 -110,-54 -36,-41 -77,-57 -125,-75 -36,-14 -84,4 -84,-58 0,-75 73,-145 101,-212 23,-54 26,-106 31,-163l-16 -467c0,-51 -21,-80 -33,-126 -15,-58 7,-78 7,-127 0,-32 -197,-21 -239,-55 -48,-39 -44,-126 -72,-178 -34,-94 -126,-173 -163,-271 -13,-34 -10,-69 -17,-104 -7,-37 -51,-73 -51,-99 0,-75 -43,-159 -102,-204 -80,-60 -100,-149 -150,-231 -28,-44 -31,-111 -49,-159 -20,-52 -42,-105 -5,-155 19,-25 -1,-45 21,-70 29,-32 64,-52 92,-84 69,-101 151,-178 228,-271 21,-26 31,-57 49,-82 38,-42 59,-138 61,-193 3,-79 -19,-117 -59,-181 -19,-31 -10,-79 -7,-115 -16,-35 -15,-70 -27,-104 -12,-33 -40,-57 -44,-92 -10,-81 -90,-96 -92,-167 -2,-43 -47,-69 -42,-118 0,-62 -9,-119 0,-182 9,-61 2,-126 -2,-187 -2,-31 -21,-94 -13,-122 -29,-89 -1,-183 -40,-270 -30,-68 -96,-176 -148,-228 -26,-45 -36,-107 -79,-139 -40,-30 -96,-27 -125,-73 -69,-110 -77,-195 -88,-318 0,-66 -4,-137 -14,-201 -9,-62 -38,-116 -56,-175 -9,-32 -23,-96 -40,-121 -5,-42 -24,-90 -35,-132 -10,-40 -11,-88 -11,-130 0,-78 -6,-186 -42,-255 -39,-118 -98,-200 -165,-300 -28,-42 -128,-190 -173,-204 -26,-26 -62,-44 -84,-73 -17,-23 -25,-59 -47,-76 -64,-49 -84,-94 -123,-164 -17,-30 -55,-88 -55,-122l-5 -5c-6,-73 32,-128 29,-193 -4,-83 -41,-97 -85,-155l-75 -98c-48,-63 -23,55 -56,57 -22,1 -49,-13 -70,-18 0,-1 -1,-2 -2,-2 -8,-30 51,-35 63,-73 -19,-56 -78,-44 -125,-53 -54,-11 -84,-39 -116,-84 -56,-79 -140,-183 -169,-276 -24,-57 -78,-76 -122,-111 -52,-41 -38,-75 -98,-11 -76,82 -115,184 -219,38 -59,-83 -114,-53 -206,-53 -94,0 -160,-105 -182,-188 0,-28 3,-54 -20,-68 -62,37 -74,80 -156,90 -58,7 -128,108 -196,128 -142,42 -286,-83 -434,-70 -109,27 -99,70 -160,150 -62,81 -145,-11 -229,-14 -62,-2 -136,4 -195,-11 -41,-11 -156,-44 -174,26l-8 5c-63,56 -127,112 -198,156 -75,47 -113,58 -197,72 -51,9 -75,69 -110,77 -38,17 -72,35 -114,18 -33,-14 -72,-37 -110,-32 -65,9 -168,107 -218,25l-74 -121c-38,-76 -92,-115 -63,-209 26,-85 -86,-91 -122,-146 -27,-41 -57,-93 -89,-130 -23,-50 -48,-66 -48,-124 0,-22 -10,-92 -2,-106 7,-13 45,-41 45,-50 0,-14 -66,-19 -77,-22 0,-11 50,-50 63,-53 16,-4 46,39 57,51 53,58 101,13 156,-20 38,-23 85,-32 121,-55 71,-42 127,-90 206,-117 58,-20 143,-54 191,-91 80,3 152,12 231,-1 61,-10 137,-39 197,-39 69,0 190,25 254,50 70,-13 112,-16 160,-74 37,-45 68,-72 130,-67 101,8 118,111 228,85 63,-15 125,-50 188,-56 62,-15 123,-36 166,-85 43,-49 76,-36 125,-60 45,-22 159,-116 178,-159 108,-136 148,-361 143,-530 -23,-85 -33,-172 -19,-260 9,-58 29,-118 24,-176 -2,-31 -36,-44 -49,-67 -3,0 -2,-2 -5,-6 -156,-114 -268,-256 -304,-446 16,-147 71,-241 167,-346 21,-23 73,-57 84,-82 60,-41 116,-85 189,-100 90,-18 83,-76 141,-104 36,-17 66,-21 88,-62 25,-48 91,-39 131,-23 49,20 100,12 144,29 126,45 87,171 109,275 8,36 32,42 14,82 -16,35 -85,69 -121,76 -74,15 -152,9 -228,9 -36,0 -66,-21 -100,-21 -1,5 -7,33 -10,38 4,29 19,54 20,84 1,29 -6,52 13,78 26,37 66,65 86,104 13,25 17,64 35,84 23,25 64,40 84,64l120 101c25,21 56,37 77,61 89,96 109,13 211,-17 38,-11 96,-14 79,-72 -2,-22 -24,-54 -32,-76 -9,-23 -6,-49 -5,-73l8 -156c2,-34 28,-83 26,-110 43,-43 104,-102 80,-164 -23,-60 51,-53 2,-124 -19,-27 -50,-41 -66,-71 -15,-26 -48,-131 -64,-141 -72,-34 -23,-86 15,-125 34,-34 62,-79 101,-110 32,-26 72,-43 102,-69 207,-91 377,-169 601,-211 39,-7 150,-5 178,-22l14 0c104,-6 215,-10 318,0 79,8 140,66 206,101 51,27 120,41 160,83l115 122c70,74 121,176 195,244 60,40 77,83 121,131 37,40 87,66 120,111 71,96 -29,142 -52,224 18,71 -15,124 -27,190 -7,36 39,132 74,145 39,14 52,-18 52,-52 0,-50 -9,-116 -23,-163 0,-75 -93,-149 23,-198 82,-35 160,-59 247,-72 38,-6 141,-21 175,-8 2,-2 16,1 19,2 233,0 469,9 655,-139 54,-36 107,-45 147,-101 24,-33 73,-41 36,-82 -21,-23 -36,-55 -53,-80 -12,-19 -9,-69 8,-69 2,8 10,16 13,27 1,6 0,26 7,26 20,0 33,-39 34,-55 6,-99 40,-20 23,24 -8,21 -40,62 -39,81 1,13 21,31 35,24 25,-12 73,-103 93,-130 39,-39 73,-67 123,-89 52,-23 94,-15 127,-76 54,-99 126,-179 147,-289 14,-37 -9,-147 -17,-186 -14,-68 -4,-141 -14,-209 -6,-37 -19,-76 -23,-112 -10,-29 -18,-60 -36,-84 -15,-21 -45,-32 -59,-52 -21,-31 -65,-107 -72,-143 -7,-34 -14,-64 -41,-90 -32,-30 -73,-70 -86,-112 -76,-131 -196,-144 -313,-225 -117,-81 -162,-175 -248,-278 -36,-57 -146,-188 -206,-217 -34,-16 -68,-17 -102,-36 -41,-24 -82,-48 -114,-84 -36,-41 -69,-124 -109,-153 -92,-106 -126,-160 -247,-239l-330 -214c-155,-112 -346,-144 -517,-223 -48,-22 -95,-52 -147,-65 -107,-8 -194,6 -285,-61 -44,-33 -203,-112 -174,-171 21,-43 79,-40 101,-81 22,-40 87,-77 124,-103 43,-29 61,-80 86,-124 28,-49 80,-181 138,-196 1,-2 4,-4 5,-5 63,-73 120,-198 134,-294 15,-105 -59,-154 -84,-239 -42,-54 -41,-130 -41,-195 0,-54 -56,-114 -75,-168 -5,-15 -12,-102 -1,-112 -1,-3 0,-8 1,-10 12,-62 -8,-112 8,-177 12,-45 -25,-101 -14,-125 15,-32 35,-60 36,-97 2,-54 -16,-82 -30,-128 -13,0 -20,101 -22,116 -4,25 1,104 -24,104 -10,-31 -88,-85 -115,-106 -51,-39 -123,-35 -177,-78 -20,-101 -43,-187 -29,-292 11,-89 15,-127 -60,-181 -59,-54 -78,-78 -113,-148 -34,-67 -84,-44 -138,-71l-86 -44c-27,-14 -89,54 -105,75 -58,51 -132,83 -185,135 -49,49 -86,123 -116,185 -17,37 -60,74 -72,110 -48,66 -105,108 -145,181 -55,100 -74,62 -167,66 -62,3 -82,31 -126,69 -60,52 -96,22 -85,-51 10,-62 39,-124 111,-124 58,0 51,-52 81,-73 27,-62 -29,-83 -51,-129 -28,-57 -16,-77 -91,-88 -78,-12 -257,-66 -310,-7 -43,47 -106,69 -157,105 -31,21 -87,26 -108,44 -80,20 -144,20 -225,20 -39,0 -97,-42 -127,-29 -63,28 -33,218 -30,273 3,63 -7,170 11,227l-2 516c0,86 -4,171 -15,256 -9,68 -4,159 -28,221l-57 294 -161 485c-53,127 -117,283 -204,391 -16,19 -59,67 -64,90 -58,80 -63,217 -133,276 -88,74 -118,157 -191,239 -25,76 -82,159 -122,229 -30,52 -56,134 -93,177 -23,26 -70,32 -87,56 -5,1 -8,4 -11,7 -97,62 -102,180 -128,281 -23,91 -72,169 -97,257 -9,82 -114,225 -164,292 -32,43 -113,169 -164,185 -78,62 -200,172 -251,257 -49,83 -68,186 -92,277 -19,38 -24,89 -42,130 -17,39 -36,82 -42,125l-34 235c0,83 -17,157 -33,237 -15,75 -57,143 -80,212 -18,51 -47,112 -90,144 -54,40 -59,93 -123,120 -30,12 -40,69 -51,96 -16,40 -60,90 -69,127l-360 510c-88,152 -127,352 -190,515l-70 246c-14,50 -38,150 -35,199 -51,80 -51,202 -89,289 -24,54 -66,158 -111,198 -77,63 -106,223 -102,316 1,24 -11,60 -6,80 6,26 31,42 44,65 47,83 96,163 119,256 22,230 425,298 602,376 75,17 197,135 230,205l145 302c32,82 192,115 264,153 56,30 113,52 175,67 64,16 122,53 184,69 61,-12 264,130 310,174 108,103 178,174 251,305 34,55 54,94 117,106 110,21 367,308 377,423 44,157 120,332 120,498 15,65 17,145 17,214 0,37 22,85 31,122 13,51 21,80 49,125 20,38 33,109 85,113 44,3 167,-102 170,-143 2,-28 -45,-87 -31,-107 6,-8 31,7 40,8 18,1 35,-4 52,2 0,40 -21,34 -9,82 8,33 112,-67 142,-82l245 -121c6,-1 14,-2 19,-6 91,-17 177,-69 273,-75l351 -22c282,0 534,55 772,213 18,27 66,65 93,84 48,34 106,126 138,178 45,76 82,139 105,226 18,27 31,89 45,122l81 203c26,66 26,138 51,207 34,47 43,182 52,242 14,100 32,218 22,319 1,4 1,11 2,15 -16,65 10,165 12,232 2,83 0,196 16,276l38 107c46,130 34,263 10,394 5,78 -43,174 -70,246l-102 269c-28,73 -32,149 -48,226l-62 285 -57 134c-45,106 -141,221 -141,335 30,-22 41,-19 63,-58 19,-35 47,-60 21,1 -25,59 23,23 43,50 12,17 9,123 7,151l-13 134c-13,137 -10,-65 -10,-101 0,-54 13,-110 -21,-152 -18,-22 -23,47 -23,50 -7,50 9,99 -4,149 -5,18 -6,53 -15,68 -29,47 -7,-113 -4,-125 9,-48 7,-94 -4,-138 -34,0 -35,-25 -33,25 3,61 4,120 -26,174 -41,74 12,104 41,161 109,92 275,163 230,342 0,4 2,8 2,11 28,28 62,40 95,63 42,29 107,100 134,143 40,64 106,109 136,183 9,67 40,126 40,200 0,100 10,202 -5,302 -27,94 -40,180 -84,269 -21,43 -9,89 -32,135l-69 134c-46,55 -106,113 -170,149 -98,55 -138,97 -29,170 38,26 101,43 145,60 63,24 99,86 135,140 65,90 51,214 118,302 51,67 186,108 214,184 15,50 47,105 82,143 56,59 93,185 173,208 99,29 245,67 349,61 86,19 299,31 342,106 36,63 65,74 129,104 67,31 106,71 164,107 6,4 13,12 18,14 43,69 141,131 196,196 71,84 106,181 97,290 -19,99 -21,204 -49,302 -16,55 -29,72 -69,109 -24,22 -41,85 -53,115 -10,37 -59,86 -80,122 -18,32 -44,55 -68,81 -21,22 -13,54 -17,82 -7,44 -30,83 -37,127 -8,56 42,60 80,81 102,22 93,251 123,253 56,4 150,-51 204,-69 78,-27 191,-89 271,-94 96,-8 231,-73 325,-108 85,-32 174,-94 185,-189l69 -125c19,-34 -6,-74 5,-103 34,-85 261,-196 337,-257 73,-31 136,-88 214,-111 94,-28 472,-71 417,-234 -26,0 -60,117 -117,79 -56,-37 -62,-65 -62,-124 15,-82 26,-95 97,-109 52,-10 227,-69 274,-39 29,18 14,207 6,241 -12,3 -22,-29 -37,-34 -39,-13 -39,-18 -70,-36 -10,-6 -17,-11 -29,-12 -5,0 -32,-23 -35,-14 -7,2 13,37 16,42 19,29 20,64 56,72 56,13 76,41 138,47 59,5 121,55 179,71 34,6 94,17 85,61 -12,61 38,-11 46,-10 17,2 82,104 89,124 11,29 39,103 29,131 -26,-7 -97,-129 -117,-153 -6,-7 -21,19 -14,29l66 101c20,31 52,58 69,92 54,75 81,168 139,245 58,76 152,165 229,221 82,19 138,191 176,257 55,99 135,130 167,246 2,66 56,176 77,240l86 257c-3,40 22,79 14,127 -14,84 11,130 14,211 1,36 6,63 -3,98 -8,33 -29,60 -29,95 -5,38 -47,66 -74,91 -50,46 -72,120 -104,178 -45,82 41,130 41,217 0,105 9,178 88,257 36,36 62,87 98,124l119 121c39,87 279,242 209,355 -38,61 -79,71 32,86 97,13 170,26 264,54 66,8 101,29 173,14 40,-9 94,-1 128,-21 124,-74 171,-177 198,-311 44,-126 100,-123 223,-155 65,-17 118,-9 182,-12 49,-2 63,-64 119,-64 38,-7 88,5 123,-15 31,-18 25,-46 10,-75 -17,-33 -47,-4 -72,-4 -24,0 -68,-50 -80,-72 -25,-43 48,-7 74,-4 215,25 104,237 45,362 -12,89 -93,134 -123,207 -14,34 -53,130 -80,146 -16,-7 18,-76 23,-93 17,-52 39,-122 48,-172 2,-14 0,-106 -28,-55l-65 118c-31,56 8,131 -44,182 -58,58 20,69 20,137 10,107 112,210 202,254 81,39 225,75 312,69 57,0 144,-116 158,-168 22,-79 36,-196 15,-277 -13,-74 -5,-157 -14,-233l-12 -99c-5,-45 4,-83 4,-125 33,-97 25,-219 92,-303 25,-31 71,-91 108,-107 39,-17 86,-58 101,-99 48,-102 98,-161 210,-191l36 -21zm-17547 -25154l18886 0 0 27700 -18886 0 0 -27700z"/>
  <polygon class="fil2 str3" points="1596,1232 4925,1232 4925,2825 1596,2825 "/>
  <path class="fil3" d="M2957 1421l0 7c-15,1 -27,4 -37,9 -10,5 -19,11 -28,21 -9,9 -17,20 -23,31 -6,11 -11,25 -15,41 16,-11 33,-17 50,-17 16,0 30,6 41,19 12,13 18,29 18,50 0,19 -6,37 -18,53 -14,19 -33,29 -56,29 -16,0 -30,-5 -41,-16 -22,-21 -33,-47 -33,-80 0,-21 4,-41 13,-60 8,-19 20,-36 36,-50 16,-15 30,-24 45,-29 14,-5 27,-8 40,-8l10 0zm-107 120c-2,16 -3,28 -3,38 0,11 2,23 6,36 4,13 10,23 18,31 6,5 13,8 21,8 10,0 19,-5 27,-14 8,-9 12,-23 12,-40 0,-20 -4,-37 -12,-51 -8,-14 -19,-22 -33,-22 -4,0 -9,1 -14,3 -5,2 -12,6 -22,12z"/>
  <path id="1" class="fil3" d="M3121 1414l0 157 40 -37c9,-8 13,-13 15,-15 1,-1 1,-3 1,-4 0,-2 -1,-4 -3,-6 -2,-2 -5,-3 -9,-3l0 -6 69 0 0 6c-9,0 -17,2 -23,4 -6,3 -13,7 -21,14l-41 37 40 51c11,14 19,23 23,27 6,5 10,9 15,10 3,1 8,2 15,2l0 6 -77 0 0 -6c4,0 7,-1 9,-2 2,-1 2,-3 2,-5 0,-3 -2,-7 -7,-13l-48 -62 0 52c0,10 1,17 2,20 1,3 3,5 6,7 3,1 8,2 17,2l0 6 -80 0 0 -6c8,0 14,-1 18,-3 2,-1 4,-3 5,-6 2,-4 3,-10 3,-20l0 -144c0,-18 0,-29 -1,-33 -1,-4 -2,-7 -4,-8 -2,-2 -4,-2 -7,-2 -2,0 -6,1 -11,3l-3 -6 47 -19 8 0z"/>
  <path id="2" class="fil3" d="M3298 1531c11,-12 18,-18 20,-20 5,-4 11,-8 17,-10 6,-2 12,-4 18,-4 10,0 18,3 25,9 7,6 12,14 14,25 12,-14 22,-23 30,-27 8,-4 17,-6 25,-6 8,0 16,2 22,6 6,4 12,11 15,21 3,7 4,17 4,31l0 68c0,10 1,17 2,20 1,2 3,5 6,6 3,2 8,3 15,3l0 6 -77 0 0 -6 3 0c7,0 12,-1 16,-4 3,-2 5,-5 6,-9 0,-2 1,-7 1,-17l0 -68c0,-13 -2,-22 -5,-27 -5,-7 -12,-11 -22,-11 -6,0 -12,2 -18,5 -6,3 -14,9 -22,17l0 2 1 7 0 75c0,11 1,17 2,20 1,3 3,5 7,7 3,2 9,3 17,3l0 6 -79 0 0 -6c9,0 15,-1 18,-3 3,-2 5,-5 7,-9 1,-2 1,-8 1,-17l0 -68c0,-13 -2,-22 -6,-28 -5,-7 -12,-11 -21,-11 -6,0 -12,2 -18,5 -9,5 -17,11 -22,17l0 85c0,10 1,17 2,20 1,3 4,5 6,7 3,2 8,2 17,2l0 6 -78 0 0 -6c7,0 12,-1 15,-2 3,-2 5,-4 7,-7 1,-3 2,-10 2,-20l0 -60c0,-17 -1,-28 -2,-34 -1,-4 -2,-6 -4,-8 -2,-1 -4,-2 -7,-2 -3,0 -7,1 -12,3l-3 -6 48 -19 7 0 0 34z"/>
  <path class="fil3" d="M3102 2543l0 24 -31 0 0 62 -29 0 0 -62 -98 0 0 -22 108 -155 19 0 0 152 31 0zm-60 0l0 -116 -82 116 82 0z"/>
  <path id="1" class="fil3" d="M3260 2500c11,-12 18,-18 20,-20 5,-4 11,-8 17,-10 6,-2 12,-4 18,-4 10,0 18,3 25,9 7,6 12,14 14,25 12,-14 22,-23 30,-27 8,-4 17,-6 25,-6 8,0 16,2 22,6 6,4 12,11 15,21 3,7 4,17 4,31l0 68c0,10 1,17 2,20 1,2 3,5 6,6 3,2 8,3 15,3l0 6 -77 0 0 -6 3 0c7,0 12,-1 16,-4 3,-2 5,-5 6,-9 0,-2 1,-7 1,-17l0 -68c0,-13 -2,-22 -5,-27 -5,-7 -12,-11 -22,-11 -6,0 -12,2 -18,5 -6,3 -14,9 -22,17l0 2 1 7 0 75c0,11 1,17 2,20 1,3 3,5 7,7 3,2 9,3 17,3l0 6 -79 0 0 -6c9,0 15,-1 18,-3 3,-2 5,-5 7,-9 1,-2 1,-8 1,-17l0 -68c0,-13 -2,-22 -6,-28 -5,-7 -12,-11 -21,-11 -6,0 -12,2 -18,5 -9,5 -17,11 -22,17l0 85c0,10 1,17 2,20 1,3 4,5 6,7 3,2 8,2 17,2l0 6 -78 0 0 -6c7,0 12,-1 15,-2 3,-2 5,-4 7,-7 1,-3 2,-10 2,-20l0 -60c0,-17 -1,-28 -2,-34 -1,-4 -2,-6 -4,-8 -2,-1 -4,-2 -7,-2 -3,0 -7,1 -12,3l-3 -6 48 -19 7 0 0 34z"/>
  <path id="2" class="fil3" d="M3528 2384c5,0 9,2 12,5 3,3 5,8 5,12 0,5 -2,9 -5,12 -3,3 -8,5 -12,5 -5,0 -9,-2 -12,-5 -3,-3 -5,-8 -5,-12 0,-5 2,-9 5,-12 3,-3 8,-5 13,-5zm14 83l0 127c0,10 1,16 2,20 1,3 4,6 6,7 3,2 8,2 15,2l0 6 -77 0 0 -6c8,0 13,-1 15,-2 3,-1 5,-4 6,-7 2,-3 2,-10 2,-20l0 -61c0,-17 -1,-28 -2,-33 -1,-4 -2,-6 -4,-8 -2,-1 -4,-2 -7,-2 -3,0 -7,1 -12,3l-2 -6 47 -19 8 0z"/>
  <path class="fil3" d="M1198 2963c0,-17 4,-34 13,-51 9,-17 22,-30 38,-39 17,-9 34,-14 52,-14 18,0 35,5 52,14 17,9 29,22 39,38 9,17 14,34 14,52 0,18 -5,35 -14,52 -9,17 -22,29 -39,39 -17,9 -34,14 -52,14 -18,0 -35,-5 -52,-14 -17,-9 -30,-22 -38,-39 -9,-17 -13,-34 -13,-51zm17 0c0,15 4,29 11,43 7,14 18,25 32,32 14,8 28,12 43,12 15,0 29,-4 43,-12 14,-8 24,-18 32,-32 8,-14 12,-28 12,-43 0,-15 -4,-29 -12,-43 -8,-14 -18,-25 -32,-32 -14,-8 -28,-11 -43,-11 -15,0 -30,4 -43,12 -14,8 -25,19 -32,32 -7,14 -11,28 -11,43zm104 -33l5 -17c12,3 21,9 28,18 7,9 10,20 10,33 0,16 -5,29 -16,39 -10,10 -25,15 -44,15 -12,0 -23,-2 -32,-7 -9,-5 -16,-11 -20,-20 -5,-9 -7,-18 -7,-29 0,-12 3,-22 9,-30 6,-8 14,-14 24,-17l4 16c-7,3 -12,7 -16,12 -4,5 -6,12 -6,19 0,11 4,19 11,26 8,7 18,10 32,10 14,0 25,-3 32,-10 7,-6 11,-15 11,-25 0,-8 -2,-16 -7,-22 -5,-6 -11,-10 -20,-12z"/>
  <path id="1" class="fil3" d="M1404 2668l-19 0c14,9 22,23 22,41 0,12 -3,22 -10,32 -6,10 -15,17 -27,23 -12,5 -25,8 -40,8 -15,0 -28,-2 -40,-7 -12,-5 -21,-12 -27,-22 -6,-10 -10,-21 -10,-33 0,-9 2,-17 6,-24 4,-7 9,-12 15,-17l-73 0 0 -25 202 0 0 23zm-73 78c19,0 33,-4 42,-12 9,-8 14,-17 14,-28 0,-11 -4,-20 -13,-28 -9,-8 -22,-11 -41,-11 -20,0 -35,4 -44,12 -9,8 -14,17 -14,29 0,11 4,20 13,28 9,7 23,11 42,11z"/>
  <polygon id="2" class="fil3" points="1343,2616 1318,2616 1318,2539 1343,2539 "/>
  <path id="3" class="fil3" d="M1404 2512l-146 0 0 -22 21 0c-7,-5 -13,-11 -17,-18 -4,-8 -7,-16 -7,-26 0,-11 2,-20 7,-27 5,-7 11,-12 19,-15 -17,-12 -26,-27 -26,-45 0,-15 4,-26 12,-34 8,-8 20,-12 37,-12l100 0 0 25 -92 0c-10,0 -17,1 -21,2 -4,2 -8,5 -11,9 -3,4 -4,9 -4,15 0,10 3,19 10,26 7,7 18,10 33,10l85 0 0 25 -95 0c-11,0 -19,2 -25,6 -6,4 -8,11 -8,20 0,7 2,13 6,19 4,6 9,10 16,13 7,3 17,4 31,4l76 0 0 25z"/>
  <path id="4" class="fil3" d="M1385 2181c8,9 13,18 17,27 3,9 5,18 5,27 0,16 -4,28 -12,37 -8,9 -18,13 -30,13 -7,0 -14,-2 -20,-5 -6,-3 -11,-8 -14,-13 -4,-5 -6,-11 -8,-18 -1,-5 -2,-12 -4,-22 -2,-20 -5,-35 -9,-44 -3,0 -6,0 -6,0 -10,0 -17,2 -21,7 -6,6 -8,16 -8,28 0,12 2,20 6,26 4,6 11,10 22,12l-3 24c-10,-2 -19,-6 -25,-11 -6,-5 -11,-12 -15,-22 -3,-10 -5,-21 -5,-33 0,-13 1,-23 4,-31 3,-8 7,-14 11,-17 4,-4 10,-6 17,-8 4,-1 12,-1 23,-1l33 0c23,0 38,-1 44,-2 6,-1 12,-3 18,-6l0 26c-5,3 -11,4 -18,5zm-55 2c4,9 7,23 9,41 1,10 3,17 5,22 2,4 5,7 8,10 4,2 7,3 12,3 7,0 12,-2 16,-8 4,-5 7,-12 7,-22 0,-10 -2,-18 -6,-26 -4,-7 -10,-13 -17,-16 -6,-3 -14,-4 -25,-4l-9 0z"/>
  <path id="5" class="fil3" d="M1460 2120l-203 0 0 -23 19 0c-7,-5 -13,-11 -17,-18 -4,-7 -6,-15 -6,-24 0,-13 3,-24 10,-33 6,-10 15,-17 27,-22 12,-5 25,-7 38,-7 15,0 28,3 40,8 12,5 21,13 28,23 6,10 10,21 10,32 0,8 -2,16 -5,22 -3,7 -8,12 -13,16l71 0 0 25zm-129 -23c19,0 33,-4 42,-11 9,-8 13,-17 13,-28 0,-11 -5,-20 -14,-28 -9,-8 -24,-12 -43,-12 -19,0 -33,4 -42,11 -9,8 -14,17 -14,27 0,11 5,20 15,28 10,8 24,12 43,12z"/>
  <path id="6" class="fil3" d="M1360 1973l-4 -25c10,-1 17,-5 23,-12 5,-6 8,-15 8,-26 0,-11 -2,-20 -7,-25 -5,-6 -10,-8 -16,-8 -6,0 -10,3 -13,7 -2,3 -5,12 -8,25 -5,18 -9,31 -12,38 -3,7 -8,12 -14,16 -6,4 -12,5 -20,5 -7,0 -13,-2 -18,-4 -6,-3 -10,-7 -14,-12 -3,-4 -5,-9 -7,-16 -2,-7 -3,-14 -3,-21 0,-11 2,-22 5,-30 3,-9 8,-15 13,-19 6,-4 13,-7 23,-9l3 24c-8,1 -14,4 -18,10 -4,5 -6,13 -6,22 0,11 2,19 6,24 4,5 8,7 13,7 3,0 6,-1 9,-3 3,-2 5,-5 7,-10 1,-3 3,-10 6,-22 5,-18 9,-30 11,-37 3,-7 7,-12 13,-16 6,-4 13,-6 21,-6 8,0 16,2 23,7 7,5 13,12 17,21 4,9 6,19 6,31 0,19 -4,34 -12,44 -8,10 -20,16 -35,19z"/>
  <polygon id="7" class="fil3" points="1404,1815 1376,1815 1376,1786 1404,1786 "/>
  <path id="8" class="fil3" d="M1350 1648l3 -24c17,3 30,9 39,20 9,11 14,24 14,40 0,20 -7,36 -20,48 -13,12 -32,18 -56,18 -16,0 -30,-3 -41,-8 -12,-5 -21,-13 -27,-24 -6,-11 -9,-22 -9,-35 0,-16 4,-29 12,-39 8,-10 19,-17 34,-19l4 24c-10,2 -17,6 -22,12 -5,6 -7,13 -7,21 0,13 4,23 13,31 9,8 23,12 42,12 20,0 34,-4 43,-11 9,-8 13,-17 13,-29 0,-10 -3,-18 -9,-24 -6,-7 -15,-11 -27,-12z"/>
  <path id="9" class="fil3" d="M1331 1612c-27,0 -47,-8 -60,-23 -11,-13 -16,-28 -16,-46 0,-20 7,-37 20,-49 13,-13 31,-19 55,-19 19,0 34,3 44,8 11,6 19,14 25,25 6,11 9,23 9,35 0,21 -7,37 -20,50 -13,13 -32,19 -57,19zm0 -25c19,0 33,-4 42,-12 9,-8 14,-19 14,-31 0,-12 -5,-23 -14,-31 -9,-8 -24,-12 -43,-12 -18,0 -32,4 -41,12 -9,8 -14,18 -14,31 0,12 5,23 14,31 9,8 23,12 42,12z"/>
  <path id="10" class="fil3" d="M1404 1445l-146 0 0 -22 21 0c-7,-5 -13,-11 -17,-18 -4,-8 -7,-16 -7,-26 0,-11 2,-20 7,-27 5,-7 11,-12 19,-15 -17,-12 -26,-27 -26,-45 0,-15 4,-26 12,-34 8,-8 20,-12 37,-12l100 0 0 25 -92 0c-10,0 -17,1 -21,2 -4,2 -8,5 -11,9 -3,4 -4,9 -4,15 0,10 3,19 10,26 7,7 18,10 33,10l85 0 0 25 -95 0c-11,0 -19,2 -25,6 -6,4 -8,11 -8,20 0,7 2,13 6,19 4,6 9,10 16,13 7,3 17,4 31,4l76 0 0 25z"/>
  <g id="_2656699331648">
   <polygon class="fil4 str4" points="1738,1826 2679,1826 2679,1925 1738,1925 "/>
   <polygon class="fil5 str4" points="2679,1826 3621,1826 3621,1925 2679,1925 "/>
   <polygon class="fil4 str4" points="3621,1826 4562,1826 4562,1925 3621,1925 "/>
   <polygon class="fil4 str4" points="3247,2125 4753,2125 4753,2224 3247,2224 "/>
   <polygon class="fil5 str4" points="1741,2125 3247,2125 3247,2224 1741,2224 "/>
  </g>
  <rect class="fil0 str5" x="1000" y="1000" width="18886" height="27700"/>
  <g id="_2656699323584">
   <polygon class="fil2 str3" points="1244,26874 2060,26874 2060,28467 1244,28467 "/>
   <path class="fil6" d="M1592 27310c-1,3 -2,6 -2,9 0,3 -1,5 -1,7 0,6 2,10 5,12 3,2 10,3 18,3l4 0 -5 23 -78 0 5 -23 3 0c7,0 13,-2 16,-5 4,-3 6,-8 8,-16l38 -154c1,-3 1,-6 2,-8 0,-3 1,-6 1,-9 0,-5 -2,-9 -6,-11 -4,-2 -11,-3 -20,-3l-3 0 5 -23 72 0 62 184 31 -129c1,-4 2,-8 2,-10 0,-3 1,-5 1,-6 0,-6 -2,-10 -5,-12 -4,-2 -10,-3 -18,-3l-4 0 5 -23 79 0 -6 23 -3 0c-7,0 -13,2 -16,5 -4,3 -6,8 -8,16l-51 208 -22 0 -72 -209 -37 155z"/>
   <line class="fil0 str6" x1="1653" y1="28334" x2="1653" y2= "27564" />
   <line class="fil0 str6" x1="1371" y1="28058" x2="1934" y2= "28058" />
   <line class="fil0 str6" x1="1508" y1="28198" x2="1802" y2= "27911" />
   <line class="fil0 str6" x1="1505" y1="27911" x2="1803" y2= "28199" />
   <line class="fil0 str6" x1="1653" y1="27567" x2="1557" y2= "27685" />
   <line class="fil0 str6" x1="1653" y1="27567" x2="1741" y2= "27685" />
  </g>
  <g id="_2656699312064">
   <polygon class="fil2 str3" points="5127,27993 5127,28467 2818,28467 2818,27993 "/>
   <path class="fil6" d="M3895 28332l0 -202 40 0 48 143c4,13 8,23 10,30 2,-7 6,-18 11,-32l49 -141 36 0 0 202 -26 0 0 -169 -59 169 -24 0 -58 -172 0 172 -26 0z"/>
   <path id="1" class="fil6" d="M4228 28284l26 3c-4,15 -11,27 -22,35 -11,8 -25,12 -42,12 -21,0 -38,-7 -51,-20 -13,-13 -19,-32 -19,-55 0,-25 6,-44 19,-57 13,-14 29,-20 49,-20 20,0 35,7 48,20 12,13 19,32 19,56 0,1 0,4 0,7l-109 0c1,16 5,28 14,37 8,9 18,13 31,13 9,0 17,-2 23,-7 6,-5 12,-12 15,-23zm-81 -40l82 0c-1,-12 -4,-22 -9,-28 -8,-10 -18,-14 -31,-14 -11,0 -21,4 -29,11 -8,8 -12,18 -13,31z"/>
   <path id="2" class="fil6" d="M4284 28332l0 -146 22 0 0 22c6,-10 11,-17 16,-21 5,-3 10,-5 16,-5 8,0 17,3 26,8l-9 23c-6,-3 -12,-5 -18,-5 -5,0 -10,2 -15,5 -4,3 -7,8 -9,14 -3,9 -4,18 -4,29l0 77 -25 0z"/>
   <path id="3" class="fil6" d="M4474 28278l24 3c-3,17 -9,30 -20,39 -11,9 -24,14 -40,14 -20,0 -36,-7 -48,-20 -12,-13 -18,-32 -18,-56 0,-16 3,-30 8,-41 5,-12 13,-21 24,-27 11,-6 22,-9 35,-9 16,0 29,4 39,12 10,8 17,19 19,34l-24 4c-2,-10 -6,-17 -12,-22 -6,-5 -13,-7 -21,-7 -13,0 -23,4 -31,13 -8,9 -12,23 -12,42 0,20 4,34 11,43 8,9 17,13 29,13 10,0 18,-3 24,-9 7,-6 11,-15 12,-27z"/>
   <path id="4" class="fil6" d="M4615 28313c-9,8 -18,13 -27,17 -9,3 -18,5 -27,5 -16,0 -28,-4 -37,-12 -9,-8 -13,-18 -13,-30 0,-7 2,-14 5,-20 3,-6 8,-11 13,-14 5,-4 11,-6 18,-8 5,-1 12,-2 22,-4 20,-2 35,-5 44,-9 0,-3 0,-6 0,-6 0,-10 -2,-17 -7,-21 -6,-6 -16,-8 -28,-8 -12,0 -20,2 -26,6 -6,4 -10,11 -12,22l-24 -3c2,-10 6,-19 11,-25 5,-6 12,-11 22,-15 10,-3 21,-5 33,-5 13,0 23,1 31,4 8,3 14,7 17,11 4,4 6,10 8,17 1,4 1,12 1,23l0 33c0,23 1,38 2,44 1,6 3,12 6,18l-26 0c-3,-5 -4,-11 -5,-18zm-2 -55c-9,4 -23,7 -41,9 -10,1 -17,3 -22,5 -4,2 -7,5 -10,8 -2,4 -3,7 -3,12 0,7 2,12 8,16 5,4 12,7 22,7 10,0 18,-2 26,-6 7,-4 13,-10 16,-17 3,-6 4,-14 4,-25l0 -9z"/>
   <path id="5" class="fil6" d="M4731 28309l3 22c-7,1 -13,2 -19,2 -9,0 -16,-1 -21,-4 -5,-3 -8,-7 -10,-11 -2,-5 -3,-14 -3,-29l0 -84 -18 0 0 -19 18 0 0 -36 25 -15 0 51 25 0 0 19 -25 0 0 86c0,7 0,12 1,14 1,2 2,4 4,5 2,1 5,2 8,2 3,0 6,0 11,-1z"/>
   <path id="6" class="fil6" d="M4746 28258c0,-27 8,-47 23,-60 13,-11 28,-16 46,-16 20,0 37,7 49,20 13,13 19,31 19,55 0,19 -3,34 -8,44 -6,11 -14,19 -25,25 -11,6 -23,9 -35,9 -21,0 -37,-7 -50,-20 -13,-13 -19,-32 -19,-57zm25 0c0,19 4,33 12,42 8,9 19,14 31,14 12,0 23,-5 31,-14 8,-9 12,-24 12,-43 0,-18 -4,-32 -12,-41 -8,-9 -18,-14 -31,-14 -12,0 -23,5 -31,14 -8,9 -12,23 -12,42z"/>
   <path id="7" class="fil6" d="M4912 28332l0 -146 22 0 0 22c6,-10 11,-17 16,-21 5,-3 10,-5 16,-5 8,0 17,3 26,8l-9 23c-6,-3 -12,-5 -18,-5 -5,0 -10,2 -15,5 -4,3 -7,8 -9,14 -3,9 -4,18 -4,29l0 77 -25 0z"/>
   <circle class="fil7 str7" cx="3036" cy="28226" r="119"/>
   <rect class="fil7 str7" x="3494" y="28118" width="227" height="227"/>
   <line class="fil0 str8" x1="3210" y1="28225" x2="3430" y2= "28225" />
   <line class="fil0 str8" x1="3428" y1="28226" x2="3364" y2= "28291" />
   <line class="fil0 str8" x1="3428" y1="28225" x2="3364" y2= "28164" />
  </g>
 </g>
</svg>